<svg width="29" height="29" viewBox="0 0 29 29" fill="none" xmlns="http://www.w3.org/2000/svg">
<path fill-rule="evenodd" clip-rule="evenodd" d="M14.5001 2.41667C7.83008 2.41667 2.41675 7.83 2.41675 14.5C2.41675 21.17 7.83008 26.5833 14.5001 26.5833C21.1701 26.5833 26.5834 21.17 26.5834 14.5C26.5834 7.83 21.1701 2.41667 14.5001 2.41667ZM14.5001 6.04167C16.5059 6.04167 18.1251 7.66083 18.1251 9.66667C18.1251 11.6725 16.5059 13.2917 14.5001 13.2917C12.4942 13.2917 10.8751 11.6725 10.8751 9.66667C10.8751 7.66083 12.4942 6.04167 14.5001 6.04167ZM7.25008 19.3092C8.80883 21.6533 11.4792 23.2 14.5001 23.2C17.5209 23.2 20.1913 21.6533 21.7501 19.3092C21.7138 16.9046 16.9047 15.5875 14.5001 15.5875C12.0834 15.5875 7.28633 16.9046 7.25008 19.3092Z" fill="#020957"/>
</svg>
