<svg width="28" height="28" viewBox="0 0 28 28" fill="none" xmlns="http://www.w3.org/2000/svg">
<path fill-rule="evenodd" clip-rule="evenodd" d="M21.0015 12.5417V18.375L22.5065 19.88C23.2415 20.615 22.7165 21.875 21.6782 21.875H6.31319C5.27486 21.875 4.76152 20.615 5.49652 19.88L7.00152 18.375V12.5417C7.00152 8.94833 8.90319 5.96167 12.2515 5.16833V4.375C12.2515 3.40667 13.0332 2.625 14.0015 2.625C14.9699 2.625 15.7515 3.40667 15.7515 4.375V5.16833C19.0882 5.96167 21.0015 8.96 21.0015 12.5417ZM16.3349 23.0417C16.3349 24.325 15.2849 25.375 14.0015 25.375C12.7065 25.375 11.6682 24.325 11.6682 23.0417H16.3349Z" fill="#020957"/>
</svg>
