<svg width="29" height="29" viewBox="0 0 29 29" fill="none" xmlns="http://www.w3.org/2000/svg">
<path d="M14.5 1.8125C7.49356 1.8125 1.8125 7.49356 1.8125 14.5C1.8125 21.5064 7.49356 27.1875 14.5 27.1875C21.5064 27.1875 27.1875 21.5064 27.1875 14.5C27.1875 7.49356 21.5064 1.8125 14.5 1.8125ZM19.4985 18.3997L18.6886 19.5042C18.671 19.5282 18.6488 19.5486 18.6233 19.564C18.5978 19.5795 18.5695 19.5897 18.54 19.5942C18.5105 19.5987 18.4804 19.5973 18.4515 19.5901C18.4226 19.5829 18.3953 19.5701 18.3714 19.5523L13.6872 16.1369C13.658 16.116 13.6343 16.0883 13.618 16.0563C13.6018 16.0242 13.5934 15.9888 13.5938 15.9528V8.15625C13.5938 8.03164 13.6957 7.92969 13.8203 7.92969H15.1825C15.3071 7.92969 15.4091 8.03164 15.4091 8.15625V15.1655L19.4476 18.0854C19.5495 18.1562 19.5722 18.2978 19.4985 18.3997Z" fill="#020957"/>
</svg>
