<svg width="27" height="27" viewBox="0 0 27 27" fill="none" xmlns="http://www.w3.org/2000/svg">
<path fill-rule="evenodd" clip-rule="evenodd" d="M13.5 2.25C7.29 2.25 2.25 7.29 2.25 13.5C2.25 19.71 7.29 24.75 13.5 24.75C19.71 24.75 24.75 19.71 24.75 13.5C24.75 7.29 19.71 2.25 13.5 2.25ZM8.71875 14.625C8.71875 13.8488 9.34875 13.2188 10.125 13.2188C10.9012 13.2188 11.5312 13.8488 11.5312 14.625C11.5312 15.4012 10.9012 16.0312 10.125 16.0312C9.34875 16.0312 8.71875 15.4012 8.71875 14.625ZM15.4688 14.625C15.4688 13.8488 16.0988 13.2188 16.875 13.2188C17.6512 13.2188 18.2812 13.8488 18.2812 14.625C18.2812 15.4012 17.6512 16.0312 16.875 16.0312C16.0988 16.0312 15.4688 15.4012 15.4688 14.625ZM4.5 13.5C4.5 18.4613 8.53875 22.5 13.5 22.5C18.4613 22.5 22.5 18.4613 22.5 13.5C22.5 12.6113 22.365 11.7563 22.1287 10.9575C21.3188 11.1488 20.475 11.25 19.5975 11.25C15.8063 11.25 12.4538 9.37125 10.4175 6.49125C9.315 9.18 7.21125 11.3513 4.55625 12.5325C4.5225 12.8475 4.5 13.1738 4.5 13.5Z" fill="#020957"/>
</svg>
