<svg width="24" height="24" viewBox="0 0 24 24" fill="none" xmlns="http://www.w3.org/2000/svg">
<path fill-rule="evenodd" clip-rule="evenodd" d="M2.06376 8.11625L10.4938 3.51625C11.0938 3.19625 11.8138 3.19625 12.4138 3.51625L21.9338 8.70625C22.2538 8.88625 22.4538 9.21625 22.4538 9.58625V15.9963C22.4538 16.5463 22.0038 16.9963 21.4538 16.9963C20.9038 16.9963 20.4538 16.5463 20.4538 15.9963V10.0863L12.4138 14.4763C11.8138 14.8063 11.0938 14.8063 10.4938 14.4763L2.06376 9.87625C1.37376 9.49625 1.37376 8.49625 2.06376 8.11625ZM4.45376 15.9863V13.1763L10.4938 16.4763C11.0938 16.8063 11.8138 16.8063 12.4138 16.4763L18.4538 13.1763V15.9863C18.4538 16.7163 18.0538 17.3963 17.4138 17.7463L12.4138 20.4763C11.8138 20.8063 11.0938 20.8063 10.4938 20.4763L5.49376 17.7463C4.85376 17.3963 4.45376 16.7163 4.45376 15.9863Z" fill="#020957"/>
</svg>
