<svg width="36" height="36" viewBox="0 0 36 36" fill="none" xmlns="http://www.w3.org/2000/svg">
<path fill-rule="evenodd" clip-rule="evenodd" d="M7.5 13.8975C7.5 8.09252 12.195 3.39752 18 3.39752C23.805 3.39752 28.5 8.09252 28.5 13.8975C28.5 20.1525 21.87 28.7775 19.155 32.0625C18.555 32.7825 17.46 32.7825 16.86 32.0625C14.13 28.7775 7.5 20.1525 7.5 13.8975ZM14.25 13.8975C14.25 15.9675 15.93 17.6475 18 17.6475C20.07 17.6475 21.75 15.9675 21.75 13.8975C21.75 11.8275 20.07 10.1475 18 10.1475C15.93 10.1475 14.25 11.8275 14.25 13.8975Z" fill="#020957"/>
</svg>
