<svg width="87" height="87" viewBox="0 0 87 87" fill="none" xmlns="http://www.w3.org/2000/svg">
<g clip-path="url(#clip0_5_59)">
<circle cx="43.3696" cy="43.3696" r="43.3696" fill="#DAE3EA"/>
</g>
<path fill-rule="evenodd" clip-rule="evenodd" d="M26.2078 29.7917L41.6787 21.645C42.8145 21.0379 44.1853 21.0379 45.3212 21.645L60.792 29.7917C61.5949 30.2029 62.1041 31.045 62.1041 31.9458C62.1041 33.2971 61.0074 34.3938 59.6758 34.3938H27.3437C25.9924 34.3938 24.8958 33.2971 24.8958 31.9458C24.8958 31.045 25.4049 30.2029 26.2078 29.7917ZM28.8124 41.2479V49.0813C28.8124 50.7067 30.1245 52.0188 31.7499 52.0188C33.3753 52.0188 34.6874 50.7067 34.6874 49.0813V41.2479C34.6874 39.6225 33.3753 38.3104 31.7499 38.3104C30.1245 38.3104 28.8124 39.6225 28.8124 41.2479ZM40.5624 41.2479V49.0813C40.5624 50.7067 41.8745 52.0188 43.4999 52.0188C45.1253 52.0188 46.4374 50.7067 46.4374 49.0813V41.2479C46.4374 39.6225 45.1253 38.3104 43.4999 38.3104C41.8745 38.3104 40.5624 39.6225 40.5624 41.2479ZM62.1041 58.8729C62.1041 60.4983 60.792 61.8104 59.1666 61.8104H27.8333C26.2078 61.8104 24.8958 60.4983 24.8958 58.8729C24.8958 57.2475 26.2078 55.9354 27.8333 55.9354H59.1666C60.792 55.9354 62.1041 57.2475 62.1041 58.8729ZM52.3124 41.2479V49.0813C52.3124 50.7067 53.6245 52.0188 55.2499 52.0188C56.8753 52.0188 58.1874 50.7067 58.1874 49.0813V41.2479C58.1874 39.6225 56.8753 38.3104 55.2499 38.3104C53.6245 38.3104 52.3124 39.6225 52.3124 41.2479Z" fill="#020957"/>
<defs>
<clipPath id="clip0_5_59">
<rect width="86.7391" height="86.7391" fill="white"/>
</clipPath>
</defs>
</svg>
