<svg width="29" height="29" viewBox="0 0 29 29" fill="none" xmlns="http://www.w3.org/2000/svg">
<path fill-rule="evenodd" clip-rule="evenodd" d="M14.5 2.41669C7.83002 2.41669 2.41669 7.83002 2.41669 14.5C2.41669 21.17 7.83002 26.5834 14.5 26.5834C21.17 26.5834 26.5834 21.17 26.5834 14.5C26.5834 7.83002 21.17 2.41669 14.5 2.41669ZM14.5 6.04169C16.5059 6.04169 18.125 7.66085 18.125 9.66669C18.125 11.6725 16.5059 13.2917 14.5 13.2917C12.4942 13.2917 10.875 11.6725 10.875 9.66669C10.875 7.66085 12.4942 6.04169 14.5 6.04169ZM7.25002 19.3092C8.80877 21.6534 11.4792 23.2 14.5 23.2C17.5209 23.2 20.1913 21.6534 21.75 19.3092C21.7138 16.9046 16.9046 15.5875 14.5 15.5875C12.0834 15.5875 7.28627 16.9046 7.25002 19.3092Z" fill="#020957"/>
</svg>
