<svg width="34" height="34" viewBox="0 0 34 34" fill="none" xmlns="http://www.w3.org/2000/svg">
<path d="M30.152 11.7236L21.7217 10.4984L17.9532 2.85841C17.8503 2.64923 17.6809 2.47989 17.4717 2.37696C16.9471 2.11798 16.3096 2.3338 16.0473 2.85841L12.2788 10.4984L3.8485 11.7236C3.61608 11.7568 3.40358 11.8664 3.24089 12.0324C3.0442 12.2346 2.93581 12.5066 2.93955 12.7886C2.94328 13.0706 3.05883 13.3397 3.26081 13.5365L9.36022 19.4832L7.91921 27.8803C7.88541 28.0756 7.90703 28.2765 7.9816 28.4602C8.05617 28.6439 8.18072 28.803 8.34111 28.9195C8.50151 29.0359 8.69133 29.1052 8.88907 29.1193C9.0868 29.1334 9.28453 29.0918 9.45983 28.9992L17.0003 25.0348L24.5407 28.9992C24.7465 29.1088 24.9856 29.1453 25.2147 29.1055C25.7924 29.0059 26.1809 28.458 26.0813 27.8803L24.6403 19.4832L30.7397 13.5365C30.9057 13.3738 31.0153 13.1613 31.0485 12.9289C31.1382 12.3479 30.7331 11.81 30.152 11.7236Z" fill="#020957"/>
</svg>
