<svg width="87" height="87" viewBox="0 0 87 87" fill="none" xmlns="http://www.w3.org/2000/svg">
<g clip-path="url(#clip0_6_1555)">
<circle cx="43.3696" cy="43.3696" r="43.3696" fill="#DAE3EA"/>
<path fill-rule="evenodd" clip-rule="evenodd" d="M51.6304 35.1087C51.6304 39.6728 47.9337 43.3696 43.3696 43.3696C38.8054 43.3696 35.1087 39.6728 35.1087 35.1087C35.1087 30.5446 38.8054 26.8478 43.3696 26.8478C47.9337 26.8478 51.6304 30.5446 51.6304 35.1087ZM26.8478 55.761C26.8478 50.2675 37.8555 47.5001 43.3696 47.5001C48.8837 47.5001 59.8913 50.2675 59.8913 55.761V57.8262C59.8913 58.9621 58.962 59.8914 57.8261 59.8914H28.9131C27.7772 59.8914 26.8478 58.9621 26.8478 57.8262V55.761Z" fill="#020957"/>
</g>
<defs>
<clipPath id="clip0_6_1555">
<rect width="86.7391" height="86.7391" fill="white"/>
</clipPath>
</defs>
</svg>
